<mxfile host="Electron" modified="2024-03-14T09:37:44.129Z" agent="Mozilla/5.0 (Windows NT 10.0; Win64; x64) AppleWebKit/537.36 (KHTML, like Gecko) draw.io/23.1.5 Chrome/120.0.6099.109 Electron/28.1.0 Safari/537.36" etag="AwNPIzMkrfhhUvpmVoW0" version="23.1.5" type="device">
  <diagram name="Pagina-1" id="CnZ2u3KNKNrNdW3ba_9j">
    <mxGraphModel dx="1450" dy="1029" grid="1" gridSize="10" guides="1" tooltips="1" connect="1" arrows="1" fold="1" page="0" pageScale="1" pageWidth="827" pageHeight="1169" math="0" shadow="0">
      <root>
        <mxCell id="0" />
        <mxCell id="1" parent="0" />
        <mxCell id="HEjkHHUbfOkKOY33va-R-8" style="edgeStyle=orthogonalEdgeStyle;rounded=0;orthogonalLoop=1;jettySize=auto;html=1;entryX=0;entryY=0.5;entryDx=0;entryDy=0;endArrow=doubleBlock;endFill=1;" parent="1" source="HEjkHHUbfOkKOY33va-R-1" target="HEjkHHUbfOkKOY33va-R-4" edge="1">
          <mxGeometry relative="1" as="geometry" />
        </mxCell>
        <mxCell id="HEjkHHUbfOkKOY33va-R-9" style="edgeStyle=orthogonalEdgeStyle;rounded=0;orthogonalLoop=1;jettySize=auto;html=1;entryX=0;entryY=0.5;entryDx=0;entryDy=0;" parent="1" source="HEjkHHUbfOkKOY33va-R-1" target="HEjkHHUbfOkKOY33va-R-3" edge="1">
          <mxGeometry relative="1" as="geometry" />
        </mxCell>
        <mxCell id="HEjkHHUbfOkKOY33va-R-10" style="edgeStyle=orthogonalEdgeStyle;rounded=0;orthogonalLoop=1;jettySize=auto;html=1;entryX=0;entryY=0.5;entryDx=0;entryDy=0;" parent="1" source="HEjkHHUbfOkKOY33va-R-1" target="HEjkHHUbfOkKOY33va-R-2" edge="1">
          <mxGeometry relative="1" as="geometry" />
        </mxCell>
        <mxCell id="HEjkHHUbfOkKOY33va-R-69" style="edgeStyle=orthogonalEdgeStyle;rounded=0;orthogonalLoop=1;jettySize=auto;html=1;entryX=1;entryY=0.5;entryDx=0;entryDy=0;endArrow=doubleBlock;endFill=1;" parent="1" source="HEjkHHUbfOkKOY33va-R-1" target="HEjkHHUbfOkKOY33va-R-68" edge="1">
          <mxGeometry relative="1" as="geometry" />
        </mxCell>
        <mxCell id="HEjkHHUbfOkKOY33va-R-73" style="edgeStyle=orthogonalEdgeStyle;rounded=0;orthogonalLoop=1;jettySize=auto;html=1;entryX=0;entryY=0.5;entryDx=0;entryDy=0;endArrow=doubleBlock;endFill=1;" parent="1" source="HEjkHHUbfOkKOY33va-R-1" target="HEjkHHUbfOkKOY33va-R-71" edge="1">
          <mxGeometry relative="1" as="geometry" />
        </mxCell>
        <mxCell id="HEjkHHUbfOkKOY33va-R-84" style="edgeStyle=orthogonalEdgeStyle;rounded=0;orthogonalLoop=1;jettySize=auto;html=1;entryX=0;entryY=0.5;entryDx=0;entryDy=0;" parent="1" source="HEjkHHUbfOkKOY33va-R-1" target="HEjkHHUbfOkKOY33va-R-83" edge="1">
          <mxGeometry relative="1" as="geometry" />
        </mxCell>
        <mxCell id="HEjkHHUbfOkKOY33va-R-1" value="Abergo" style="rounded=0;whiteSpace=wrap;html=1;" parent="1" vertex="1">
          <mxGeometry x="160" y="27" width="120" height="60" as="geometry" />
        </mxCell>
        <mxCell id="HEjkHHUbfOkKOY33va-R-2" value="" style="ellipse;whiteSpace=wrap;html=1;aspect=fixed;fillColor=none;" parent="1" vertex="1">
          <mxGeometry x="260" y="142" width="20" height="20" as="geometry" />
        </mxCell>
        <mxCell id="HEjkHHUbfOkKOY33va-R-3" value="" style="ellipse;whiteSpace=wrap;html=1;aspect=fixed;fillColor=#0D0D0D;" parent="1" vertex="1">
          <mxGeometry x="260" y="172" width="20" height="20" as="geometry" />
        </mxCell>
        <mxCell id="HEjkHHUbfOkKOY33va-R-4" value="" style="ellipse;whiteSpace=wrap;html=1;aspect=fixed;" parent="1" vertex="1">
          <mxGeometry x="260" y="202" width="20" height="20" as="geometry" />
        </mxCell>
        <mxCell id="HEjkHHUbfOkKOY33va-R-5" value="Nome" style="text;html=1;align=center;verticalAlign=middle;resizable=0;points=[];autosize=1;strokeColor=none;fillColor=none;" parent="1" vertex="1">
          <mxGeometry x="280" y="137" width="60" height="30" as="geometry" />
        </mxCell>
        <mxCell id="HEjkHHUbfOkKOY33va-R-6" value="Indirizzo" style="text;html=1;align=center;verticalAlign=middle;resizable=0;points=[];autosize=1;strokeColor=none;fillColor=none;" parent="1" vertex="1">
          <mxGeometry x="280" y="167" width="70" height="30" as="geometry" />
        </mxCell>
        <mxCell id="HEjkHHUbfOkKOY33va-R-7" value="Valutazione" style="text;html=1;align=center;verticalAlign=middle;resizable=0;points=[];autosize=1;strokeColor=none;fillColor=none;" parent="1" vertex="1">
          <mxGeometry x="280" y="197" width="90" height="30" as="geometry" />
        </mxCell>
        <mxCell id="HEjkHHUbfOkKOY33va-R-20" style="edgeStyle=orthogonalEdgeStyle;rounded=0;orthogonalLoop=1;jettySize=auto;html=1;entryX=0;entryY=0.5;entryDx=0;entryDy=0;" parent="1" source="HEjkHHUbfOkKOY33va-R-11" target="HEjkHHUbfOkKOY33va-R-12" edge="1">
          <mxGeometry relative="1" as="geometry" />
        </mxCell>
        <mxCell id="HEjkHHUbfOkKOY33va-R-21" style="edgeStyle=orthogonalEdgeStyle;rounded=0;orthogonalLoop=1;jettySize=auto;html=1;entryX=0;entryY=0.5;entryDx=0;entryDy=0;endArrow=doubleBlock;endFill=1;" parent="1" source="HEjkHHUbfOkKOY33va-R-11" target="HEjkHHUbfOkKOY33va-R-13" edge="1">
          <mxGeometry relative="1" as="geometry" />
        </mxCell>
        <mxCell id="HEjkHHUbfOkKOY33va-R-22" style="edgeStyle=orthogonalEdgeStyle;rounded=0;orthogonalLoop=1;jettySize=auto;html=1;entryX=0;entryY=0.5;entryDx=0;entryDy=0;" parent="1" source="HEjkHHUbfOkKOY33va-R-11" target="HEjkHHUbfOkKOY33va-R-14" edge="1">
          <mxGeometry relative="1" as="geometry" />
        </mxCell>
        <mxCell id="HEjkHHUbfOkKOY33va-R-23" style="edgeStyle=orthogonalEdgeStyle;rounded=0;orthogonalLoop=1;jettySize=auto;html=1;entryX=0;entryY=0.5;entryDx=0;entryDy=0;" parent="1" source="HEjkHHUbfOkKOY33va-R-11" target="HEjkHHUbfOkKOY33va-R-18" edge="1">
          <mxGeometry relative="1" as="geometry" />
        </mxCell>
        <mxCell id="HEjkHHUbfOkKOY33va-R-70" style="edgeStyle=orthogonalEdgeStyle;rounded=0;orthogonalLoop=1;jettySize=auto;html=1;entryX=0;entryY=0.5;entryDx=0;entryDy=0;endArrow=classic;endFill=1;" parent="1" source="HEjkHHUbfOkKOY33va-R-11" target="HEjkHHUbfOkKOY33va-R-68" edge="1">
          <mxGeometry relative="1" as="geometry" />
        </mxCell>
        <mxCell id="HEjkHHUbfOkKOY33va-R-76" style="edgeStyle=orthogonalEdgeStyle;rounded=0;orthogonalLoop=1;jettySize=auto;html=1;" parent="1" source="HEjkHHUbfOkKOY33va-R-11" target="HEjkHHUbfOkKOY33va-R-77" edge="1">
          <mxGeometry relative="1" as="geometry">
            <mxPoint x="-210" y="300" as="targetPoint" />
          </mxGeometry>
        </mxCell>
        <mxCell id="HEjkHHUbfOkKOY33va-R-11" value="Camera" style="rounded=0;whiteSpace=wrap;html=1;" parent="1" vertex="1">
          <mxGeometry x="-270" y="27" width="120" height="60" as="geometry" />
        </mxCell>
        <mxCell id="HEjkHHUbfOkKOY33va-R-12" value="" style="ellipse;whiteSpace=wrap;html=1;aspect=fixed;fillColor=#050505;" parent="1" vertex="1">
          <mxGeometry x="-170" y="142" width="20" height="20" as="geometry" />
        </mxCell>
        <mxCell id="HEjkHHUbfOkKOY33va-R-13" value="" style="ellipse;whiteSpace=wrap;html=1;aspect=fixed;" parent="1" vertex="1">
          <mxGeometry x="-170" y="172" width="20" height="20" as="geometry" />
        </mxCell>
        <mxCell id="HEjkHHUbfOkKOY33va-R-14" value="" style="ellipse;whiteSpace=wrap;html=1;aspect=fixed;" parent="1" vertex="1">
          <mxGeometry x="-170" y="202" width="20" height="20" as="geometry" />
        </mxCell>
        <mxCell id="HEjkHHUbfOkKOY33va-R-15" value="NumeroUnico" style="text;html=1;align=center;verticalAlign=middle;resizable=0;points=[];autosize=1;strokeColor=none;fillColor=none;" parent="1" vertex="1">
          <mxGeometry x="-150" y="137" width="100" height="30" as="geometry" />
        </mxCell>
        <mxCell id="HEjkHHUbfOkKOY33va-R-16" value="Tipo" style="text;html=1;align=center;verticalAlign=middle;resizable=0;points=[];autosize=1;strokeColor=none;fillColor=none;" parent="1" vertex="1">
          <mxGeometry x="-150" y="167" width="50" height="30" as="geometry" />
        </mxCell>
        <mxCell id="HEjkHHUbfOkKOY33va-R-17" value="CapacitÃ Max" style="text;html=1;align=center;verticalAlign=middle;resizable=0;points=[];autosize=1;strokeColor=none;fillColor=none;" parent="1" vertex="1">
          <mxGeometry x="-145" y="197" width="90" height="30" as="geometry" />
        </mxCell>
        <mxCell id="HEjkHHUbfOkKOY33va-R-18" value="" style="ellipse;whiteSpace=wrap;html=1;aspect=fixed;" parent="1" vertex="1">
          <mxGeometry x="-170" y="231" width="20" height="20" as="geometry" />
        </mxCell>
        <mxCell id="HEjkHHUbfOkKOY33va-R-19" value="Tariffa" style="text;html=1;align=center;verticalAlign=middle;resizable=0;points=[];autosize=1;strokeColor=none;fillColor=none;" parent="1" vertex="1">
          <mxGeometry x="-149" y="226" width="60" height="30" as="geometry" />
        </mxCell>
        <mxCell id="HEjkHHUbfOkKOY33va-R-30" style="edgeStyle=orthogonalEdgeStyle;rounded=0;orthogonalLoop=1;jettySize=auto;html=1;entryX=0;entryY=0.5;entryDx=0;entryDy=0;" parent="1" source="HEjkHHUbfOkKOY33va-R-24" target="HEjkHHUbfOkKOY33va-R-26" edge="1">
          <mxGeometry relative="1" as="geometry" />
        </mxCell>
        <mxCell id="HEjkHHUbfOkKOY33va-R-31" style="edgeStyle=orthogonalEdgeStyle;rounded=0;orthogonalLoop=1;jettySize=auto;html=1;entryX=0;entryY=0.5;entryDx=0;entryDy=0;" parent="1" source="HEjkHHUbfOkKOY33va-R-24" target="HEjkHHUbfOkKOY33va-R-27" edge="1">
          <mxGeometry relative="1" as="geometry" />
        </mxCell>
        <mxCell id="HEjkHHUbfOkKOY33va-R-78" style="edgeStyle=orthogonalEdgeStyle;rounded=0;orthogonalLoop=1;jettySize=auto;html=1;entryX=0.5;entryY=1;entryDx=0;entryDy=0;" parent="1" source="HEjkHHUbfOkKOY33va-R-24" target="HEjkHHUbfOkKOY33va-R-77" edge="1">
          <mxGeometry relative="1" as="geometry" />
        </mxCell>
        <mxCell id="HEjkHHUbfOkKOY33va-R-81" style="edgeStyle=orthogonalEdgeStyle;rounded=0;orthogonalLoop=1;jettySize=auto;html=1;entryX=0;entryY=0.5;entryDx=0;entryDy=0;" parent="1" source="HEjkHHUbfOkKOY33va-R-24" target="HEjkHHUbfOkKOY33va-R-75" edge="1">
          <mxGeometry relative="1" as="geometry" />
        </mxCell>
        <mxCell id="HEjkHHUbfOkKOY33va-R-24" value="Prenotazione" style="rounded=0;whiteSpace=wrap;html=1;" parent="1" vertex="1">
          <mxGeometry x="-270" y="427.5" width="120" height="60" as="geometry" />
        </mxCell>
        <mxCell id="HEjkHHUbfOkKOY33va-R-26" value="" style="ellipse;whiteSpace=wrap;html=1;aspect=fixed;" parent="1" vertex="1">
          <mxGeometry x="-170" y="517.5" width="20" height="20" as="geometry" />
        </mxCell>
        <mxCell id="HEjkHHUbfOkKOY33va-R-27" value="" style="ellipse;whiteSpace=wrap;html=1;aspect=fixed;" parent="1" vertex="1">
          <mxGeometry x="-170" y="547.5" width="20" height="20" as="geometry" />
        </mxCell>
        <mxCell id="HEjkHHUbfOkKOY33va-R-28" value="Check-in" style="text;html=1;align=center;verticalAlign=middle;resizable=0;points=[];autosize=1;strokeColor=none;fillColor=none;" parent="1" vertex="1">
          <mxGeometry x="-150" y="512.5" width="70" height="30" as="geometry" />
        </mxCell>
        <mxCell id="HEjkHHUbfOkKOY33va-R-29" value="Check-out" style="text;html=1;align=center;verticalAlign=middle;resizable=0;points=[];autosize=1;strokeColor=none;fillColor=none;" parent="1" vertex="1">
          <mxGeometry x="-150" y="542.5" width="80" height="30" as="geometry" />
        </mxCell>
        <mxCell id="HEjkHHUbfOkKOY33va-R-36" style="edgeStyle=orthogonalEdgeStyle;rounded=0;orthogonalLoop=1;jettySize=auto;html=1;entryX=0;entryY=0.5;entryDx=0;entryDy=0;" parent="1" source="HEjkHHUbfOkKOY33va-R-32" target="HEjkHHUbfOkKOY33va-R-35" edge="1">
          <mxGeometry relative="1" as="geometry" />
        </mxCell>
        <mxCell id="HEjkHHUbfOkKOY33va-R-37" style="edgeStyle=orthogonalEdgeStyle;rounded=0;orthogonalLoop=1;jettySize=auto;html=1;entryX=0;entryY=0.5;entryDx=0;entryDy=0;" parent="1" source="HEjkHHUbfOkKOY33va-R-32" target="HEjkHHUbfOkKOY33va-R-34" edge="1">
          <mxGeometry relative="1" as="geometry" />
        </mxCell>
        <mxCell id="HEjkHHUbfOkKOY33va-R-38" style="edgeStyle=orthogonalEdgeStyle;rounded=0;orthogonalLoop=1;jettySize=auto;html=1;entryX=0;entryY=0.5;entryDx=0;entryDy=0;" parent="1" source="HEjkHHUbfOkKOY33va-R-32" target="HEjkHHUbfOkKOY33va-R-33" edge="1">
          <mxGeometry relative="1" as="geometry" />
        </mxCell>
        <mxCell id="HEjkHHUbfOkKOY33va-R-80" style="edgeStyle=orthogonalEdgeStyle;rounded=0;orthogonalLoop=1;jettySize=auto;html=1;entryX=1;entryY=0.5;entryDx=0;entryDy=0;endArrow=classic;endFill=1;" parent="1" source="HEjkHHUbfOkKOY33va-R-32" target="HEjkHHUbfOkKOY33va-R-75" edge="1">
          <mxGeometry relative="1" as="geometry" />
        </mxCell>
        <mxCell id="HEjkHHUbfOkKOY33va-R-87" style="edgeStyle=orthogonalEdgeStyle;rounded=0;orthogonalLoop=1;jettySize=auto;html=1;entryX=0;entryY=0.5;entryDx=0;entryDy=0;" parent="1" source="HEjkHHUbfOkKOY33va-R-32" target="HEjkHHUbfOkKOY33va-R-86" edge="1">
          <mxGeometry relative="1" as="geometry" />
        </mxCell>
        <mxCell id="HEjkHHUbfOkKOY33va-R-32" value="Cliente" style="rounded=0;whiteSpace=wrap;html=1;" parent="1" vertex="1">
          <mxGeometry x="160" y="427.5" width="120" height="60" as="geometry" />
        </mxCell>
        <mxCell id="HEjkHHUbfOkKOY33va-R-33" value="" style="ellipse;whiteSpace=wrap;html=1;aspect=fixed;" parent="1" vertex="1">
          <mxGeometry x="260" y="517.5" width="20" height="20" as="geometry" />
        </mxCell>
        <mxCell id="HEjkHHUbfOkKOY33va-R-34" value="" style="ellipse;whiteSpace=wrap;html=1;aspect=fixed;" parent="1" vertex="1">
          <mxGeometry x="260" y="552.5" width="20" height="20" as="geometry" />
        </mxCell>
        <mxCell id="HEjkHHUbfOkKOY33va-R-35" value="" style="ellipse;whiteSpace=wrap;html=1;aspect=fixed;" parent="1" vertex="1">
          <mxGeometry x="260" y="587.5" width="20" height="20" as="geometry" />
        </mxCell>
        <mxCell id="HEjkHHUbfOkKOY33va-R-39" value="Nome" style="text;html=1;align=center;verticalAlign=middle;resizable=0;points=[];autosize=1;strokeColor=none;fillColor=none;" parent="1" vertex="1">
          <mxGeometry x="280" y="512.5" width="60" height="30" as="geometry" />
        </mxCell>
        <mxCell id="HEjkHHUbfOkKOY33va-R-40" value="Cognome" style="text;html=1;align=center;verticalAlign=middle;resizable=0;points=[];autosize=1;strokeColor=none;fillColor=none;" parent="1" vertex="1">
          <mxGeometry x="280" y="547.5" width="80" height="30" as="geometry" />
        </mxCell>
        <mxCell id="HEjkHHUbfOkKOY33va-R-41" value="Contatto" style="text;html=1;align=center;verticalAlign=middle;resizable=0;points=[];autosize=1;strokeColor=none;fillColor=none;" parent="1" vertex="1">
          <mxGeometry x="280" y="582.5" width="70" height="30" as="geometry" />
        </mxCell>
        <mxCell id="HEjkHHUbfOkKOY33va-R-51" style="edgeStyle=orthogonalEdgeStyle;rounded=0;orthogonalLoop=1;jettySize=auto;html=1;entryX=0;entryY=0.5;entryDx=0;entryDy=0;" parent="1" source="HEjkHHUbfOkKOY33va-R-42" target="HEjkHHUbfOkKOY33va-R-46" edge="1">
          <mxGeometry relative="1" as="geometry" />
        </mxCell>
        <mxCell id="HEjkHHUbfOkKOY33va-R-52" style="edgeStyle=orthogonalEdgeStyle;rounded=0;orthogonalLoop=1;jettySize=auto;html=1;entryX=0;entryY=0.5;entryDx=0;entryDy=0;" parent="1" source="HEjkHHUbfOkKOY33va-R-42" target="HEjkHHUbfOkKOY33va-R-45" edge="1">
          <mxGeometry relative="1" as="geometry" />
        </mxCell>
        <mxCell id="HEjkHHUbfOkKOY33va-R-53" style="edgeStyle=orthogonalEdgeStyle;rounded=0;orthogonalLoop=1;jettySize=auto;html=1;entryX=0;entryY=0.5;entryDx=0;entryDy=0;" parent="1" source="HEjkHHUbfOkKOY33va-R-42" target="HEjkHHUbfOkKOY33va-R-44" edge="1">
          <mxGeometry relative="1" as="geometry" />
        </mxCell>
        <mxCell id="HEjkHHUbfOkKOY33va-R-54" style="edgeStyle=orthogonalEdgeStyle;rounded=0;orthogonalLoop=1;jettySize=auto;html=1;entryX=0;entryY=0.5;entryDx=0;entryDy=0;" parent="1" source="HEjkHHUbfOkKOY33va-R-42" target="HEjkHHUbfOkKOY33va-R-43" edge="1">
          <mxGeometry relative="1" as="geometry" />
        </mxCell>
        <mxCell id="HEjkHHUbfOkKOY33va-R-85" style="edgeStyle=orthogonalEdgeStyle;rounded=0;orthogonalLoop=1;jettySize=auto;html=1;endArrow=doubleBlock;endFill=1;" parent="1" edge="1">
          <mxGeometry relative="1" as="geometry">
            <mxPoint x="354" y="320" as="targetPoint" />
            <mxPoint x="504" y="319.9999999999998" as="sourcePoint" />
          </mxGeometry>
        </mxCell>
        <mxCell id="HEjkHHUbfOkKOY33va-R-90" style="edgeStyle=orthogonalEdgeStyle;rounded=0;orthogonalLoop=1;jettySize=auto;html=1;entryX=0;entryY=0.5;entryDx=0;entryDy=0;" parent="1" source="HEjkHHUbfOkKOY33va-R-42" target="HEjkHHUbfOkKOY33va-R-89" edge="1">
          <mxGeometry relative="1" as="geometry" />
        </mxCell>
        <mxCell id="HEjkHHUbfOkKOY33va-R-42" value="Dipendente" style="rounded=0;whiteSpace=wrap;html=1;" parent="1" vertex="1">
          <mxGeometry x="506" y="290" width="120" height="60" as="geometry" />
        </mxCell>
        <mxCell id="HEjkHHUbfOkKOY33va-R-43" value="" style="ellipse;whiteSpace=wrap;html=1;aspect=fixed;" parent="1" vertex="1">
          <mxGeometry x="606" y="365" width="20" height="20" as="geometry" />
        </mxCell>
        <mxCell id="HEjkHHUbfOkKOY33va-R-44" value="" style="ellipse;whiteSpace=wrap;html=1;aspect=fixed;" parent="1" vertex="1">
          <mxGeometry x="606" y="395" width="20" height="20" as="geometry" />
        </mxCell>
        <mxCell id="HEjkHHUbfOkKOY33va-R-45" value="" style="ellipse;whiteSpace=wrap;html=1;aspect=fixed;" parent="1" vertex="1">
          <mxGeometry x="606" y="425" width="20" height="20" as="geometry" />
        </mxCell>
        <mxCell id="HEjkHHUbfOkKOY33va-R-46" value="" style="ellipse;whiteSpace=wrap;html=1;aspect=fixed;" parent="1" vertex="1">
          <mxGeometry x="606" y="455" width="20" height="20" as="geometry" />
        </mxCell>
        <mxCell id="HEjkHHUbfOkKOY33va-R-47" value="Nome" style="text;html=1;align=center;verticalAlign=middle;resizable=0;points=[];autosize=1;strokeColor=none;fillColor=none;" parent="1" vertex="1">
          <mxGeometry x="626" y="360" width="60" height="30" as="geometry" />
        </mxCell>
        <mxCell id="HEjkHHUbfOkKOY33va-R-48" value="Cognome" style="text;html=1;align=center;verticalAlign=middle;resizable=0;points=[];autosize=1;strokeColor=none;fillColor=none;" parent="1" vertex="1">
          <mxGeometry x="626" y="390" width="80" height="30" as="geometry" />
        </mxCell>
        <mxCell id="HEjkHHUbfOkKOY33va-R-49" value="Posizione" style="text;html=1;align=center;verticalAlign=middle;resizable=0;points=[];autosize=1;strokeColor=none;fillColor=none;" parent="1" vertex="1">
          <mxGeometry x="626" y="420" width="80" height="30" as="geometry" />
        </mxCell>
        <mxCell id="HEjkHHUbfOkKOY33va-R-50" value="Dettagli Contatto" style="text;html=1;align=center;verticalAlign=middle;resizable=0;points=[];autosize=1;strokeColor=none;fillColor=none;" parent="1" vertex="1">
          <mxGeometry x="630" y="450" width="110" height="30" as="geometry" />
        </mxCell>
        <mxCell id="HEjkHHUbfOkKOY33va-R-64" style="edgeStyle=orthogonalEdgeStyle;rounded=0;orthogonalLoop=1;jettySize=auto;html=1;entryX=0;entryY=0.5;entryDx=0;entryDy=0;" parent="1" source="HEjkHHUbfOkKOY33va-R-55" target="HEjkHHUbfOkKOY33va-R-62" edge="1">
          <mxGeometry relative="1" as="geometry" />
        </mxCell>
        <mxCell id="HEjkHHUbfOkKOY33va-R-65" style="edgeStyle=orthogonalEdgeStyle;rounded=0;orthogonalLoop=1;jettySize=auto;html=1;entryX=0;entryY=0.5;entryDx=0;entryDy=0;" parent="1" source="HEjkHHUbfOkKOY33va-R-55" target="HEjkHHUbfOkKOY33va-R-58" edge="1">
          <mxGeometry relative="1" as="geometry" />
        </mxCell>
        <mxCell id="HEjkHHUbfOkKOY33va-R-66" style="edgeStyle=orthogonalEdgeStyle;rounded=0;orthogonalLoop=1;jettySize=auto;html=1;entryX=0;entryY=0.5;entryDx=0;entryDy=0;" parent="1" source="HEjkHHUbfOkKOY33va-R-55" target="HEjkHHUbfOkKOY33va-R-57" edge="1">
          <mxGeometry relative="1" as="geometry" />
        </mxCell>
        <mxCell id="HEjkHHUbfOkKOY33va-R-67" style="edgeStyle=orthogonalEdgeStyle;rounded=0;orthogonalLoop=1;jettySize=auto;html=1;entryX=0;entryY=0.5;entryDx=0;entryDy=0;endArrow=doubleBlock;endFill=1;" parent="1" source="HEjkHHUbfOkKOY33va-R-55" target="HEjkHHUbfOkKOY33va-R-56" edge="1">
          <mxGeometry relative="1" as="geometry" />
        </mxCell>
        <mxCell id="HEjkHHUbfOkKOY33va-R-72" style="edgeStyle=orthogonalEdgeStyle;rounded=0;orthogonalLoop=1;jettySize=auto;html=1;entryX=1;entryY=0.5;entryDx=0;entryDy=0;endArrow=classic;endFill=1;" parent="1" source="HEjkHHUbfOkKOY33va-R-55" target="HEjkHHUbfOkKOY33va-R-71" edge="1">
          <mxGeometry relative="1" as="geometry" />
        </mxCell>
        <mxCell id="HEjkHHUbfOkKOY33va-R-55" value="Facility" style="rounded=0;whiteSpace=wrap;html=1;" parent="1" vertex="1">
          <mxGeometry x="557" y="27" width="120" height="60" as="geometry" />
        </mxCell>
        <mxCell id="HEjkHHUbfOkKOY33va-R-56" value="" style="ellipse;whiteSpace=wrap;html=1;aspect=fixed;" parent="1" vertex="1">
          <mxGeometry x="657" y="111" width="20" height="20" as="geometry" />
        </mxCell>
        <mxCell id="HEjkHHUbfOkKOY33va-R-57" value="" style="ellipse;whiteSpace=wrap;html=1;aspect=fixed;" parent="1" vertex="1">
          <mxGeometry x="657" y="141" width="20" height="20" as="geometry" />
        </mxCell>
        <mxCell id="HEjkHHUbfOkKOY33va-R-58" value="" style="ellipse;whiteSpace=wrap;html=1;aspect=fixed;" parent="1" vertex="1">
          <mxGeometry x="657" y="171" width="20" height="20" as="geometry" />
        </mxCell>
        <mxCell id="HEjkHHUbfOkKOY33va-R-59" value="Nome" style="text;html=1;align=center;verticalAlign=middle;resizable=0;points=[];autosize=1;strokeColor=none;fillColor=none;" parent="1" vertex="1">
          <mxGeometry x="673" y="106" width="60" height="30" as="geometry" />
        </mxCell>
        <mxCell id="HEjkHHUbfOkKOY33va-R-60" value="Descrizione" style="text;html=1;align=center;verticalAlign=middle;resizable=0;points=[];autosize=1;strokeColor=none;fillColor=none;" parent="1" vertex="1">
          <mxGeometry x="673" y="136" width="90" height="30" as="geometry" />
        </mxCell>
        <mxCell id="HEjkHHUbfOkKOY33va-R-61" value="Orario Apertura" style="text;html=1;align=center;verticalAlign=middle;resizable=0;points=[];autosize=1;strokeColor=none;fillColor=none;" parent="1" vertex="1">
          <mxGeometry x="672" y="166" width="110" height="30" as="geometry" />
        </mxCell>
        <mxCell id="HEjkHHUbfOkKOY33va-R-62" value="" style="ellipse;whiteSpace=wrap;html=1;aspect=fixed;" parent="1" vertex="1">
          <mxGeometry x="657" y="201" width="20" height="20" as="geometry" />
        </mxCell>
        <mxCell id="HEjkHHUbfOkKOY33va-R-63" value="Orario Chiusura" style="text;html=1;align=center;verticalAlign=middle;resizable=0;points=[];autosize=1;strokeColor=none;fillColor=none;" parent="1" vertex="1">
          <mxGeometry x="673" y="196" width="110" height="30" as="geometry" />
        </mxCell>
        <mxCell id="HEjkHHUbfOkKOY33va-R-68" value="Caratterizza" style="rhombus;whiteSpace=wrap;html=1;" parent="1" vertex="1">
          <mxGeometry x="-30" y="17" width="80" height="80" as="geometry" />
        </mxCell>
        <mxCell id="HEjkHHUbfOkKOY33va-R-71" value="Gestisce" style="rhombus;whiteSpace=wrap;html=1;" parent="1" vertex="1">
          <mxGeometry x="390" y="17" width="80" height="80" as="geometry" />
        </mxCell>
        <mxCell id="HEjkHHUbfOkKOY33va-R-75" value="Effettuare" style="rhombus;whiteSpace=wrap;html=1;" parent="1" vertex="1">
          <mxGeometry x="-20" y="417.5" width="80" height="80" as="geometry" />
        </mxCell>
        <mxCell id="HEjkHHUbfOkKOY33va-R-77" value="Riceve" style="rhombus;whiteSpace=wrap;html=1;" parent="1" vertex="1">
          <mxGeometry x="-250" y="280" width="80" height="80" as="geometry" />
        </mxCell>
        <mxCell id="HEjkHHUbfOkKOY33va-R-79" value="" style="endArrow=none;html=1;rounded=0;" parent="1" edge="1">
          <mxGeometry width="50" height="50" relative="1" as="geometry">
            <mxPoint x="-250" y="103" as="sourcePoint" />
            <mxPoint x="-170" y="103" as="targetPoint" />
          </mxGeometry>
        </mxCell>
        <mxCell id="HEjkHHUbfOkKOY33va-R-82" value="" style="endArrow=none;html=1;rounded=0;" parent="1" edge="1">
          <mxGeometry width="50" height="50" relative="1" as="geometry">
            <mxPoint x="137" y="490" as="sourcePoint" />
            <mxPoint x="137" y="430" as="targetPoint" />
          </mxGeometry>
        </mxCell>
        <mxCell id="HEjkHHUbfOkKOY33va-R-83" value="Prestazione" style="rhombus;whiteSpace=wrap;html=1;" parent="1" vertex="1">
          <mxGeometry x="275" y="280" width="80" height="80" as="geometry" />
        </mxCell>
        <mxCell id="HEjkHHUbfOkKOY33va-R-86" value="" style="ellipse;whiteSpace=wrap;html=1;aspect=fixed;fillColor=#050505;" parent="1" vertex="1">
          <mxGeometry x="260" y="620" width="20" height="20" as="geometry" />
        </mxCell>
        <mxCell id="HEjkHHUbfOkKOY33va-R-88" value="Documento" style="text;html=1;align=center;verticalAlign=middle;resizable=0;points=[];autosize=1;strokeColor=none;fillColor=none;" parent="1" vertex="1">
          <mxGeometry x="280" y="615" width="80" height="30" as="geometry" />
        </mxCell>
        <mxCell id="HEjkHHUbfOkKOY33va-R-89" value="" style="ellipse;whiteSpace=wrap;html=1;aspect=fixed;fillColor=#0a0a0a;" parent="1" vertex="1">
          <mxGeometry x="606" y="487.5" width="20" height="20" as="geometry" />
        </mxCell>
        <mxCell id="HEjkHHUbfOkKOY33va-R-91" value="Documento" style="text;html=1;align=center;verticalAlign=middle;resizable=0;points=[];autosize=1;strokeColor=none;fillColor=none;" parent="1" vertex="1">
          <mxGeometry x="631" y="482.5" width="80" height="30" as="geometry" />
        </mxCell>
        <mxCell id="9ggyPh5nC8ddw7mpTnlK-1" value="&lt;div&gt;&lt;b&gt;DISCLAIMER&lt;/b&gt;: Il seguente&amp;nbsp;&lt;/div&gt;diagramma realizzato con draw.io e il&amp;nbsp;&lt;span style=&quot;background-color: initial;&quot;&gt;contenuto del file .sql si riferiscono alla sola giornata (e alla conseguente sera) del&amp;nbsp;&lt;/span&gt;&lt;br&gt;&lt;div&gt;&lt;span style=&quot;background-color: initial;&quot;&gt;13/03/2024 e, di conseguenza, non contengono in alcun modo le migliorie e le modifiche del giorno successivo. Comportamento attuo alla sola possibilitÃ &lt;/span&gt;&lt;/div&gt;&lt;div&gt;&lt;span style=&quot;background-color: initial;&quot;&gt;di analizzare e migliorare le mie capacitÃ .&lt;/span&gt;&lt;/div&gt;&lt;div&gt;-- Davide.&lt;/div&gt;" style="text;html=1;align=center;verticalAlign=middle;resizable=0;points=[];autosize=1;strokeColor=none;fillColor=none;" parent="1" vertex="1">
          <mxGeometry x="-214" y="-150" width="840" height="90" as="geometry" />
        </mxCell>
      </root>
    </mxGraphModel>
  </diagram>
</mxfile>
